<svg xmlns="http://www.w3.org/2000/svg" width="979.5" height="323.5" viewBox="0 0 979.5 323.5">
  <defs>
    <style>
      .cls-1 {
        fill: none;
        stroke: #0159a1;
        stroke-linecap: round;
        stroke-width: 14px;
      }

      .cls-2 {
        fill: #0159a1;
      }

      .cls-3 {
        fill: #ff7941;
      }
    </style>
  </defs>
  <g id="组_3" data-name="组 3" transform="translate(-1020.75 -631.487)">
    <path id="路径_81" data-name="路径 81" class="cls-1" d="M0,0H965.5" transform="translate(1027.75 947.987)"/>
    <g id="组_4" data-name="组 4" transform="translate(165.25 24)">
      <g id="flat_office" data-name="flat office" transform="translate(1178.36 664.487)">
        <path id="路径_47" data-name="路径 47" class="cls-2" d="M329.758,408.635H245.28a5.28,5.28,0,0,1-5.28-5.28V149.92a5.28,5.28,0,0,1,5.28-5.28h84.478a5.28,5.28,0,0,1,5.28,5.28V403.355A5.28,5.28,0,0,1,329.758,408.635Zm-79.2-10.56h73.918V155.2H250.56Z" transform="translate(-187.201 -144.64)"/>
        <path id="路径_48" data-name="路径 48" class="cls-2" d="M585.758,493.754H501.28a5.28,5.28,0,0,1-5.28-5.28v-211.2a5.269,5.269,0,0,1,7.128-4.942l84.478,31.679a5.28,5.28,0,0,1,3.432,4.942V488.474A5.28,5.28,0,0,1,585.758,493.754Zm-79.2-10.56h73.919V312.622L506.56,284.9Z" transform="translate(-358.723 -229.971)"/>
        <path id="路径_49" data-name="路径 49" class="cls-3" d="M362.4,442.875H341.28A5.28,5.28,0,0,1,336,437.6V226.4a5.28,5.28,0,0,1,5.28-5.28H362.4a5.28,5.28,0,0,1,5.28,5.28V437.6A5.28,5.28,0,0,1,362.4,442.875Zm-15.84-10.56h10.56V231.68H346.56ZM451.524,309.822H419.845a5.28,5.28,0,0,1,0-10.56h31.679a5.28,5.28,0,0,1,0,10.56Zm0,35.206H419.845a5.28,5.28,0,0,1,0-10.56h31.679a5.28,5.28,0,0,1,0,10.56Zm0,35.2H419.845a5.28,5.28,0,0,1,0-10.56h31.679a5.28,5.28,0,0,1,0,10.56Zm0,35.2H419.845a5.28,5.28,0,0,1,0-10.56h31.679a5.28,5.28,0,0,1,0,10.56Z" transform="translate(-251.522 -195.882)"/>
        <path id="路径_50" data-name="路径 50" class="cls-2" d="M359.834,922.56H85.28a5.28,5.28,0,0,1,0-10.56H359.834a5.28,5.28,0,0,1,0,10.56Z" transform="translate(-80 -658.776)"/>
      </g>
      <g id="simple_building_1" data-name="simple building 1" transform="translate(1595.373 697.487)">
        <path id="路径_51" data-name="路径 51" class="cls-3" d="M375.815,802.693H308.224A4.225,4.225,0,0,1,304,798.469V756.224A4.224,4.224,0,0,1,308.224,752h67.591a4.224,4.224,0,0,1,4.224,4.224v42.244A4.225,4.225,0,0,1,375.815,802.693Zm-63.367-8.449h59.142v-33.8H312.449Z" transform="translate(-244.858 -574.573)"/>
        <path id="路径_52" data-name="路径 52" class="cls-2" d="M303.9,920.449H84.224a4.224,4.224,0,0,1,0-8.449H303.9a4.224,4.224,0,0,1,0,8.449Z" transform="translate(-80 -692.329)"/>
        <path id="路径_53" data-name="路径 53" class="cls-2" d="M330.509,496.529H212.224A4.224,4.224,0,0,1,208,492.3V340.224A4.224,4.224,0,0,1,212.224,336H330.509a4.224,4.224,0,0,1,4.224,4.224V492.3A4.224,4.224,0,0,1,330.509,496.529Zm-114.06-8.449H326.284V344.449H216.449Z" transform="translate(-174.204 -268.409)"/>
        <path id="路径_54" data-name="路径 54" class="cls-2" d="M360.713,250.244H276.224A4.224,4.224,0,0,1,272,246.02v-33.8A4.224,4.224,0,0,1,276.224,208h84.489a4.224,4.224,0,0,1,4.224,4.224v33.8A4.224,4.224,0,0,1,360.713,250.244ZM280.449,241.8h76.04V216.449h-76.04Z" transform="translate(-221.307 -174.204)"/>
        <path id="路径_55" data-name="路径 55" class="cls-2" d="M436.224,122.244A4.224,4.224,0,0,1,432,118.02v-33.8a4.224,4.224,0,0,1,8.449,0v33.8A4.224,4.224,0,0,1,436.224,122.244Z" transform="translate(-339.062 -80)"/>
        <path id="路径_56" data-name="路径 56" class="cls-3" d="M375.815,452.067H308.224A4.224,4.224,0,0,1,304,447.842v-16.9a4.224,4.224,0,0,1,4.224-4.224h67.591a4.224,4.224,0,0,1,4.224,4.224v16.9A4.224,4.224,0,0,1,375.815,452.067Zm-63.367-8.449h59.142v-8.449H312.449Zm63.367,49.3H308.224A4.224,4.224,0,0,1,304,488.693v-16.9a4.224,4.224,0,0,1,4.224-4.224h67.591a4.224,4.224,0,0,1,4.224,4.224v16.9A4.224,4.224,0,0,1,375.815,492.917Zm-63.367-8.449h59.142v-8.449H312.449Z" transform="translate(-244.858 -335.176)"/>
        <path id="路径_57" data-name="路径 57" class="cls-2" d="M756.224,650.553A4.224,4.224,0,0,1,752,646.329V564.881a19.6,19.6,0,1,1,39.194,0v23a4.224,4.224,0,1,1-8.449,0v-23a11.148,11.148,0,1,0-22.3,0v81.447A4.225,4.225,0,0,1,756.224,650.553Z" transform="translate(-574.573 -422.433)"/>
        <path id="路径_58" data-name="路径 58" class="cls-3" d="M852.05,717.377a11.651,11.651,0,0,1-11.634-11.634v-2.281a11.643,11.643,0,0,1,23.277,0v2.281A11.659,11.659,0,0,1,852.05,717.377Zm0-17.109a3.185,3.185,0,0,0-3.185,3.185v2.281a3.189,3.189,0,0,0,6.379,0v-2.281a3.194,3.194,0,0,0-3.194-3.185Z" transform="translate(-639.645 -530.513)"/>
      </g>
      <g id="urban_office" data-name="urban office" transform="translate(956.8 607.487)">
        <path id="路径_69" data-name="路径 69" class="cls-2" d="M393.289,923.918H83.431a5.959,5.959,0,0,1,0-11.918H393.289a5.959,5.959,0,0,1,0,11.918Z" transform="translate(-66.234 -602.14)"/>
        <path id="路径_70" data-name="路径 70" class="cls-2" d="M363.06,502.188H267.719a5.959,5.959,0,0,1-5.959-5.959V245.959A5.959,5.959,0,0,1,267.719,240H363.06a5.959,5.959,0,0,1,5.959,5.959v250.27A5.959,5.959,0,0,1,363.06,502.188ZM273.678,490.27H357.1V251.918H273.678Z" transform="translate(-181.888 -180.41)"/>
        <path id="路径_71" data-name="路径 71" class="cls-2" d="M619.06,401.773H523.719a5.959,5.959,0,0,1-5.959-5.959V170.464a5.979,5.979,0,0,1,2-4.457L615.1,81.5a5.959,5.959,0,0,1,9.915,4.457V395.814A5.959,5.959,0,0,1,619.06,401.773Zm-89.382-11.918H613.1V99.2l-83.423,73.937Z" transform="translate(-342.547 -79.995)"/>
        <path id="路径_72" data-name="路径 72" class="cls-3" d="M478.813,465.55H443.06a5.959,5.959,0,1,1,0-11.918h35.753a5.959,5.959,0,1,1,0,11.918Zm0,53.629H443.06a5.959,5.959,0,1,1,0-11.918h35.753a5.959,5.959,0,1,1,0,11.918Zm0,53.629H443.06a5.959,5.959,0,1,1,0-11.918h35.753a5.959,5.959,0,1,1,0,11.918ZM383.472,465.55H347.719a5.959,5.959,0,0,1,0-11.918h35.753a5.959,5.959,0,1,1,0,11.918Zm0,53.629H347.719a5.959,5.959,0,1,1,0-11.918h35.753a5.959,5.959,0,1,1,0,11.918Zm0,53.629H347.719a5.959,5.959,0,1,1,0-11.918h35.753a5.959,5.959,0,1,1,0,11.918Z" transform="translate(-232.094 -314.48)"/>
        <path id="路径_73" data-name="路径 73" class="cls-2" d="M124.731,693.774a5.959,5.959,0,0,1-5.959-5.959V572.929a15.731,15.731,0,1,0-31.463,0v32.44a5.959,5.959,0,0,1-11.918,0v-32.44a27.649,27.649,0,1,1,55.3,0V687.815A5.959,5.959,0,0,1,124.731,693.774Z" transform="translate(-64.928 -371.996)"/>
        <path id="路径_74" data-name="路径 74" class="cls-3" d="M63.718,726.975A16.446,16.446,0,0,1,47.3,710.552v-3.218a16.417,16.417,0,1,1,32.833,0v3.218A16.422,16.422,0,0,1,63.718,726.975Zm0-24.133a4.517,4.517,0,0,0-4.5,4.5v3.218a4.5,4.5,0,0,0,9,0v-3.218a4.493,4.493,0,0,0-4.493-4.5Z" transform="translate(-47.296 -463.391)"/>
      </g>
      <g id="flat_urban_1" data-name="flat urban 1" transform="translate(1377.433 675.487)">
        <path id="路径_75" data-name="路径 75" class="cls-3" d="M317.293,489.764H259.517a4.815,4.815,0,0,1-4.815-4.815V398.285a4.815,4.815,0,0,1,4.815-4.815h57.776a4.815,4.815,0,0,1,4.815,4.815v86.664A4.815,4.815,0,0,1,317.293,489.764Zm-52.961-9.629h48.147V403.1H264.332Zm13.885-176.265H258.959a4.815,4.815,0,1,1,0-9.629h19.259a4.815,4.815,0,1,1,0,9.629Zm39.076,0H298.034a4.815,4.815,0,0,1,0-9.629h19.259a4.815,4.815,0,1,1,0,9.629Zm-39.076,33.7H258.959a4.815,4.815,0,1,1,0-9.629h19.259a4.815,4.815,0,1,1,0,9.629Zm39.076,0H298.034a4.815,4.815,0,0,1,0-9.629h19.259a4.815,4.815,0,1,1,0,9.629Zm-39.076,33.7H258.959a4.815,4.815,0,1,1,0-9.629h19.259a4.815,4.815,0,1,1,0,9.629Zm39.076,0H298.034a4.815,4.815,0,0,1,0-9.629h19.259a4.815,4.815,0,1,1,0,9.629Z" transform="translate(-201.741 -238.199)"/>
        <path id="路径_76" data-name="路径 76" class="cls-3" d="M628.7,537.629H612.815a4.815,4.815,0,0,1,0-9.629H628.7a4.815,4.815,0,0,1,0,9.629Zm32.258,0H645.073a4.815,4.815,0,0,1,0-9.629h15.888a4.815,4.815,0,1,1,0,9.629ZM628.7,576.147H612.815a4.815,4.815,0,0,1,0-9.629H628.7a4.815,4.815,0,0,1,0,9.629Zm32.258,0H645.073a4.815,4.815,0,0,1,0-9.629h15.888a4.815,4.815,0,1,1,0,9.629ZM628.7,614.664H612.815a4.815,4.815,0,0,1,0-9.629H628.7a4.815,4.815,0,0,1,0,9.629Zm32.258,0H645.073a4.815,4.815,0,0,1,0-9.629h15.888a4.815,4.815,0,1,1,0,9.629Z" transform="translate(-449.116 -401.616)"/>
        <path id="路径_77" data-name="路径 77" class="cls-2" d="M335.177,921.309H84.815a4.815,4.815,0,0,1,0-9.629H335.177a4.815,4.815,0,0,1,0,9.629Z" transform="translate(-80 -669.841)"/>
        <path id="路径_78" data-name="路径 78" class="cls-2" d="M635.479,563.7H548.815A4.815,4.815,0,0,1,544,558.884V404.815A4.815,4.815,0,0,1,548.815,400h86.664a4.815,4.815,0,0,1,4.815,4.815V558.884A4.815,4.815,0,0,1,635.479,563.7Zm-81.849-9.629h77.035V409.629H553.629Z" transform="translate(-404.375 -312.134)"/>
        <path id="路径_79" data-name="路径 79" class="cls-2" d="M280.367,358.366H164.815A4.815,4.815,0,0,1,160,353.551V112.818a4.815,4.815,0,0,1,5.98-4.67l115.552,28.888a4.815,4.815,0,0,1,3.65,4.67V353.551A4.815,4.815,0,0,1,280.367,358.366Zm-110.737-9.629H275.552V145.471L169.629,118.99Z" transform="translate(-135.927 -108.004)"/>
        <path id="路径_80" data-name="路径 80" class="cls-2" d="M680.073,364.888H660.815A4.815,4.815,0,0,1,656,360.073V340.815A4.815,4.815,0,0,1,660.815,336h19.259a4.815,4.815,0,0,1,4.815,4.815v19.259A4.815,4.815,0,0,1,680.073,364.888Zm-14.444-9.629h9.629v-9.629h-9.629Z" transform="translate(-482.672 -267.392)"/>
      </g>
    </g>
  </g>
</svg>
